<svg id="Calque_1" data-name="Calque 1" xmlns="http://www.w3.org/2000/svg" xmlns:xlink="http://www.w3.org/1999/xlink" viewBox="0 0 512 512"><defs><style>.cls-1{fill:url(#Dégradé_sans_nom_13);}.cls-2{fill:#e10a17;}.cls-3{fill:#fff;}.cls-4{fill:#e30613;}</style><radialGradient id="Dégradé_sans_nom_13" cx="33.38" cy="33.38" r="33.38" gradientTransform="scale(7.67 7.67)" gradientUnits="userSpaceOnUse"><stop offset="0" stop-color="#6b1e0f"/><stop offset="0.32" stop-color="#671c0d"/><stop offset="0.65" stop-color="#5a1808"/><stop offset="1" stop-color="#451000"/><stop offset="1" stop-color="#451000"/></radialGradient></defs><title>Logo-app-extensions-choix</title><rect class="cls-1" width="512" height="512"/><rect class="cls-2" x="139.87" y="93.93" width="92.6" height="304.57" rx="42.45" ry="42.45"/><path class="cls-3" d="M363.42,343.65H254.09v16.89a42.52,42.52,0,0,1-23.3,37.81H363.42a27.35,27.35,0,0,0,0-54.7Z"/><polygon class="cls-3" points="211.2 237.33 195.06 237.33 195.06 221.18 177.27 221.18 177.27 237.33 161.13 237.33 161.13 255.11 177.27 255.11 177.27 271.25 195.06 271.25 195.06 255.11 211.2 255.11 211.2 237.33"/><path class="cls-4" d="M324.24,142.81a29.82,29.82,0,0,0-55.14-1.15L254,177.13V195.7l21.79-51.15a22.58,22.58,0,0,1,41.35,18.17L254,306.45v18.1l69.8-158.9A29.65,29.65,0,0,0,324.24,142.81Z"/></svg>